<svg width="32" height="32" viewBox="0 0 32 32" fill="none" xmlns="http://www.w3.org/2000/svg">
<g clip-path="url(#clip0)">
<path d="M9.73304 1.00897H10.133V1.00146H22.8568C27.6285 1.00146 31.5345 4.89195 31.5345 9.67424V22.7661C31.5345 27.5487 27.6282 31.4389 22.8643 31.4389H9.73304C4.96028 31.4389 1.04785 27.5549 1.04785 22.7811V9.68174C1.04785 4.89988 4.96092 1.00897 9.73304 1.00897ZM2.65452 9.68853V9.68923V22.7887C2.65452 26.6803 5.79656 29.8261 9.73304 29.8261H22.8643C26.7869 29.8261 29.9278 26.6791 29.9278 22.7736V9.68174C29.9278 5.77602 26.7866 2.62929 22.8568 2.62929H9.73304C5.8028 2.62929 2.66246 5.77628 2.65452 9.68853ZM25.122 6.62074C25.122 6.16031 25.4852 5.81059 25.9254 5.81059C26.3654 5.81059 26.7286 6.16031 26.7286 6.62074C26.7286 7.08118 26.3654 7.4309 25.9254 7.4309C25.4852 7.4309 25.122 7.08118 25.122 6.62074ZM8.27536 16.2239C8.27536 11.8097 11.8951 8.21138 16.2986 8.21138C20.7022 8.21138 24.322 11.8097 24.322 16.2239C24.322 20.6382 20.7022 24.2366 16.2986 24.2366C11.8951 24.2366 8.27536 20.6382 8.27536 16.2239ZM22.7154 16.2239C22.7154 12.6855 19.8672 9.83175 16.2986 9.83175C12.7302 9.83175 9.882 12.6855 9.882 16.2239C9.882 19.7624 12.7302 22.6162 16.2986 22.6162C19.8672 22.6162 22.7154 19.7624 22.7154 16.2239Z" fill="#070707" stroke="#070707"/>
</g>
<defs>
<clipPath id="clip0">
<rect width="32" height="32" fill="white"/>
</clipPath>
</defs>
</svg>
