<?xml version="1.0" encoding="utf-8"?><svg viewBox="0 0 100 100" xmlns="http://www.w3.org/2000/svg" xmlns:xlink="http://www.w3.org/1999/xlink"><style>:root>svg{display:none}:root>svg:target{display:block}</style><svg fill="none" viewBox="0 0 14 12" id="arrow" xmlns="http://www.w3.org/2000/svg"><path d="M0 6.07h12.5m0 0L7.5 1m5 5.07l-5 5.07" stroke="#F4CB38"/></svg><svg fill="none" viewBox="0 0 17 17" id="phone" xmlns="http://www.w3.org/2000/svg"><path d="M15.632 11.159a9.645 9.645 0 01-3.03-.483c-.475-.162-1.058-.014-1.348.284l-1.91 1.443c-2.217-1.184-3.582-2.549-4.749-4.749l1.4-1.861c.364-.364.494-.895.338-1.393a9.67 9.67 0 01-.484-3.036C5.849.612 5.237 0 4.485 0H1.364C.612 0 0 .612 0 1.364 0 9.986 7.012 17 15.632 17c.752 0 1.364-.612 1.364-1.364v-3.113c0-.752-.612-1.364-1.364-1.364z" fill="#000"/></svg><svg fill="none" viewBox="0 0 100 100" id="play-video" xmlns="http://www.w3.org/2000/svg"><path d="M31.356 25.677l38.625 22.3c1.557.899 1.557 3.147 0 4.046l-38.625 22.3c-1.557.899-3.504-.225-3.504-2.023V27.7c0-1.798 1.946-2.922 3.504-2.023z" fill="#fff" fill-opacity=".8"/><path d="M69.981 47.977l-38.625-22.3a2.343 2.343 0 00-.716-.259l37.341 21.559c1.557.899 1.557 3.147 0 4.046l-38.625 22.3a2.296 2.296 0 01-1.078.301c.656.938 1.961 1.343 3.078.699l38.625-22.3c1.557-.899 1.557-3.147 0-4.046z" fill="#fff" fill-opacity=".8"/><path d="M31.356 25.677l38.625 22.3c1.557.899 1.557 3.147 0 4.046l-38.625 22.3c-1.557.899-3.504-.225-3.504-2.023V27.7c0-1.798 1.946-2.922 3.504-2.023z" stroke="#fff" stroke-opacity=".8" stroke-miterlimit="10"/></svg></svg>