<svg width="32" height="32" viewBox="0 0 32 32" fill="none" xmlns="http://www.w3.org/2000/svg">
<mask id="mask0" mask-type="alpha" maskUnits="userSpaceOnUse" x="6" y="8" width="20" height="17">
<path d="M25.6107 8.74932C25.378 8.46475 25.0295 8.30811 24.6293 8.30811C24.4117 8.30811 24.1813 8.3539 23.9444 8.44441L7.82096 14.5992C6.9653 14.9258 6.85005 15.4158 6.85747 15.6788C6.86488 15.9419 7.00773 16.4246 7.88054 16.7023C7.8858 16.7039 7.89098 16.7055 7.89623 16.707L11.2407 17.6641L13.0494 22.8361C13.2959 23.5412 13.8495 23.9792 14.4941 23.9792C14.9006 23.9792 15.3003 23.8088 15.6503 23.4868L17.7189 21.5821L20.7194 23.9981C20.7197 23.9983 20.7202 23.9985 20.7205 23.9988L20.749 24.0218C20.7515 24.0238 20.7543 24.026 20.7569 24.028C21.0904 24.2867 21.4545 24.4233 21.8101 24.4234H21.8102C22.505 24.4234 23.0582 23.9091 23.2194 23.1134L25.8612 10.0686C25.9673 9.54506 25.8783 9.07656 25.6107 8.74932ZM12.3595 17.4823L18.812 14.1859L14.7942 18.4551C14.7284 18.5249 14.6818 18.6106 14.6587 18.7037L13.884 21.8417L12.3595 17.4823ZM14.8942 22.6657C14.8674 22.6903 14.8405 22.7122 14.8137 22.7325L15.5324 19.8214L16.8399 20.8742L14.8942 22.6657ZM24.7674 9.84708L22.1256 22.8919C22.1001 23.0167 22.0189 23.3072 21.8101 23.3072C21.7069 23.3072 21.5772 23.251 21.4446 23.1488L18.0447 20.4112C18.0442 20.4108 18.0436 20.4104 18.0431 20.41L16.02 18.781L21.8301 12.6073C22.0162 12.4097 22.033 12.107 21.8701 11.8898C21.7071 11.6728 21.4116 11.6044 21.1699 11.728L11.6139 16.6099L8.22393 15.64L24.3424 9.48708C24.4786 9.43504 24.5736 9.42414 24.6293 9.42414C24.6635 9.42414 24.7242 9.42826 24.7467 9.45599C24.7764 9.49218 24.8142 9.61553 24.7674 9.84708Z" fill="white"/>
</mask>
<g mask="url(#mask0)">
<path d="M25.6107 8.74932C25.378 8.46475 25.0295 8.30811 24.6293 8.30811C24.4117 8.30811 24.1813 8.3539 23.9444 8.44441L7.82096 14.5992C6.9653 14.9258 6.85005 15.4158 6.85747 15.6788C6.86488 15.9419 7.00773 16.4246 7.88054 16.7023C7.8858 16.7039 7.89098 16.7055 7.89623 16.707L11.2407 17.6641L13.0494 22.8361C13.2959 23.5412 13.8495 23.9792 14.4941 23.9792C14.9006 23.9792 15.3003 23.8088 15.6503 23.4868L17.7189 21.5821L20.7194 23.9981C20.7197 23.9983 20.7202 23.9985 20.7205 23.9988L20.749 24.0218C20.7515 24.0238 20.7543 24.026 20.7569 24.028C21.0904 24.2867 21.4545 24.4233 21.8101 24.4234H21.8102C22.505 24.4234 23.0582 23.9091 23.2194 23.1134L25.8612 10.0686C25.9673 9.54506 25.8783 9.07656 25.6107 8.74932ZM12.3595 17.4823L18.812 14.1859L14.7942 18.4551C14.7284 18.5249 14.6818 18.6106 14.6587 18.7037L13.884 21.8417L12.3595 17.4823ZM14.8942 22.6657C14.8674 22.6903 14.8405 22.7122 14.8137 22.7325L15.5324 19.8214L16.8399 20.8742L14.8942 22.6657ZM24.7674 9.84708L22.1256 22.8919C22.1001 23.0167 22.0189 23.3072 21.8101 23.3072C21.7069 23.3072 21.5772 23.251 21.4446 23.1488L18.0447 20.4112C18.0442 20.4108 18.0436 20.4104 18.0431 20.41L16.02 18.781L21.8301 12.6073C22.0162 12.4097 22.033 12.107 21.8701 11.8898C21.7071 11.6728 21.4116 11.6044 21.1699 11.728L11.6139 16.6099L8.22393 15.64L24.3424 9.48708C24.4786 9.43504 24.5736 9.42414 24.6293 9.42414C24.6635 9.42414 24.7242 9.42826 24.7467 9.45599C24.7764 9.49218 24.8142 9.61553 24.7674 9.84708Z" fill="black"/>
</g>
<path d="M26.8822 0.761963H5.2448C2.7729 0.761963 0.761902 2.76757 0.761902 5.23284V26.8123C0.761902 29.2775 2.7729 31.2832 5.2448 31.2832H26.8822C29.3541 31.2832 31.3651 29.2775 31.3651 26.8123V5.23284C31.3651 2.76757 29.3541 0.761963 26.8822 0.761963ZM29.572 26.8123C29.572 28.2914 28.3653 29.4948 26.8822 29.4948H5.2448C3.7617 29.4948 2.55506 28.2914 2.55506 26.8123V5.23284C2.55506 3.75373 3.7617 2.55031 5.2448 2.55031H26.8822C28.3653 2.55031 29.572 3.75373 29.572 5.23284V26.8123Z" fill="#070707" stroke="#070707" stroke-width="0.5"/>
</svg>
