<svg width="32" height="32" viewBox="0 0 32 32" fill="none" xmlns="http://www.w3.org/2000/svg">
<path d="M26.8822 0.761963H5.2448C2.7729 0.761963 0.761902 2.76757 0.761902 5.23284V26.8123C0.761902 29.2775 2.7729 31.2832 5.2448 31.2832H26.8822C29.3541 31.2832 31.3651 29.2775 31.3651 26.8123V5.23284C31.3651 2.76757 29.3541 0.761963 26.8822 0.761963ZM29.572 26.8123C29.572 28.2914 28.3653 29.4948 26.8822 29.4948H5.2448C3.7617 29.4948 2.55506 28.2914 2.55506 26.8123V5.23284C2.55506 3.75373 3.7617 2.55031 5.2448 2.55031H26.8822C28.3653 2.55031 29.572 3.75373 29.572 5.23284V26.8123Z" fill="#070707" stroke="#070707" stroke-width="0.5"/>
<path d="M16.1288 22.8571C19.2149 22.8571 18.1145 20.8475 18.3528 20.2697C18.3492 19.8381 18.3456 19.4231 18.3599 19.1707C18.5554 19.2274 19.0168 19.4679 19.9696 20.4205C21.4407 21.9474 21.8167 22.8571 23.0051 22.8571H25.1927C25.886 22.8571 26.2469 22.5618 26.4274 22.314C26.6015 22.0745 26.7722 21.6539 26.5855 20.9993C26.0975 19.4231 23.2514 16.7012 23.0744 16.4141C23.1011 16.3611 23.1438 16.2907 23.166 16.2541H23.1643C23.726 15.4907 25.87 12.1865 26.1855 10.8644C26.1864 10.8626 26.1874 10.8599 26.1874 10.8571C26.358 10.2537 26.2015 9.86237 26.0398 9.64111C25.7962 9.31014 25.4087 9.14282 24.8851 9.14282H22.6976C21.9652 9.14282 21.4096 9.52225 21.1287 10.2144C20.6585 11.4441 19.3376 13.973 18.3474 14.8681C18.3172 13.6 18.3376 12.6317 18.3536 11.9122C18.3856 10.5088 18.4888 9.14282 17.0728 9.14282H13.6346C12.7475 9.14282 11.8986 10.1394 12.8177 11.3225C13.6213 12.3593 13.1066 12.9371 13.2799 15.8135C12.6044 15.0683 11.4026 13.056 10.5528 10.4841C10.3146 9.78831 9.95376 9.14374 8.93776 9.14374H6.75022C5.86312 9.14374 5.33334 9.64111 5.33334 10.474C5.33334 12.3447 9.3591 22.8571 16.1288 22.8571ZM8.93776 10.5152C9.1306 10.5152 9.15018 10.5152 9.29327 10.933C10.1635 13.5689 12.1155 17.4692 13.5413 17.4692C14.6124 17.4692 14.6124 16.3401 14.6124 15.9149L14.6114 12.5303C14.5528 11.4103 14.1564 10.8525 13.8959 10.5143L17.0141 10.5179C17.0159 10.5335 16.9964 14.2619 17.023 15.1652C17.023 16.448 18.0132 17.1831 19.5589 15.5739C21.19 13.6804 22.318 10.8498 22.3634 10.7346C22.43 10.57 22.4879 10.5143 22.6976 10.5143H24.8851H24.894C24.8931 10.517 24.8931 10.5197 24.8923 10.5225C24.6923 11.4825 22.718 14.5417 22.0576 15.4916C22.0469 15.5063 22.0372 15.5218 22.0274 15.5373C21.7367 16.0256 21.5003 16.565 22.0674 17.3239H22.0683C22.1199 17.3879 22.254 17.5378 22.4496 17.7463C23.0576 18.3917 25.1429 20.5988 25.3278 21.4765C25.2051 21.4967 25.0718 21.482 23.0051 21.4866C22.5652 21.4866 22.2212 20.81 20.9083 19.4477C19.7279 18.2665 18.9616 17.7837 18.2639 17.7837C16.9092 17.7837 17.0079 18.9147 17.0204 20.2825C17.0248 21.7655 17.0159 21.2964 17.0257 21.3897C16.9465 21.4217 16.7199 21.4857 16.1288 21.4857C10.4888 21.4857 6.81599 12.2779 6.67466 10.5179C6.72355 10.5133 7.39643 10.5161 8.93776 10.5152Z" fill="black"/>
</svg>
